<svg width="450" height="100" viewBox="0 0 450 100" fill="none" xmlns="http://www.w3.org/2000/svg">
<path d="M175 25H187.5L198 40H216L200 0H215L243 40H265C267.75 40 270.104 40.9792 272.062 42.9375C274.021 44.8958 275 47.25 275 50C275 52.75 274.021 55.1042 272.062 57.0625C270.104 59.0208 267.75 60 265 60H243L215 100H200L216 60H198L187.5 75H175L182.5 50L175 25Z" fill="#2C3247"/>
<path d="M0 50C0 47.2386 2.23858 45 5 45H445C447.761 45 450 47.2386 450 50C450 52.7614 447.761 55 445 55H5.00001C2.23859 55 0 52.7614 0 50Z" fill="#2C3247" fill-opacity="0.5"/>
</svg>
