<svg width="621" height="119" viewBox="0 0 621 119" fill="none" xmlns="http://www.w3.org/2000/svg">
<path d="M52.0629 44.3H17.9629V58.3H45.1629V71.6H17.9629V97H0.762878V31H52.0629V44.3Z" fill="#2C3247"/>
<path d="M73.5933 25.8V80C73.5933 82.2 73.96 83.7667 74.6933 84.7C75.4267 85.6333 76.66 86.1 78.3933 86.1C79.3933 86.1 80.2267 86.0333 80.8933 85.9C81.56 85.7667 82.36 85.5667 83.2934 85.3L82.1934 95.5C80.9934 96.2333 79.4267 96.8333 77.4933 97.3C75.56 97.7667 73.66 98 71.7934 98C66.46 98 62.5933 96.7667 60.1933 94.3C57.7933 91.8333 56.5933 87.8 56.5933 82.2V25.8H73.5933Z" fill="#2C3247"/>
<path d="M134.148 47L115.948 97C114.081 102.267 112.048 106.467 109.848 109.6C107.648 112.733 105.048 115 102.048 116.4C99.048 117.8 95.448 118.5 91.248 118.5C88.448 118.5 85.8814 118.2 83.548 117.6C81.2147 117 79.1814 116.167 77.448 115.1L80.848 103.6C82.048 104.467 83.3147 105.067 84.648 105.4C85.9814 105.8 87.6814 106 89.748 106C91.6814 106 93.248 105.667 94.448 105C95.7147 104.333 96.7147 103.067 97.448 101.2L98.748 98.1L92.948 84.5L77.948 47H96.648L104.348 75.5L106.748 86.1L109.548 75.1L117.248 47H134.148Z" fill="#2C3247"/>
<path d="M190.114 98C184.447 98 179.38 96.8667 174.914 94.6C170.447 92.3333 166.914 89.0667 164.314 84.8C161.714 80.5333 160.414 75.4333 160.414 69.5C160.414 63.9 161.214 58.7333 162.814 54C164.414 49.2 166.747 45 169.814 41.4C172.88 37.8 176.614 35 181.014 33C185.48 31 190.58 30 196.314 30C201.247 30 205.647 30.8333 209.514 32.5C213.38 34.1667 216.547 36.6 219.014 39.8C221.48 42.9333 223.114 46.8333 223.914 51.5L207.414 55.2C207.014 51.2 205.88 48.2667 204.014 46.4C202.147 44.4667 199.414 43.5 195.814 43.5C192.747 43.5 190.08 44.3333 187.814 46C185.547 47.6 183.647 49.7 182.114 52.3C180.58 54.9 179.447 57.7333 178.714 60.8C178.047 63.8667 177.714 66.8667 177.714 69.8C177.714 72.8667 178.247 75.5 179.314 77.7C180.38 79.8333 181.914 81.5 183.914 82.7C185.98 83.9 188.414 84.5 191.214 84.5C194.614 84.5 197.28 83.6333 199.214 81.9C201.147 80.1 202.78 77.7667 204.114 74.9L219.514 80.9C216.647 86.1667 212.847 90.3333 208.114 93.4C203.38 96.4667 197.38 98 190.114 98Z" fill="#2C3247"/>
<path d="M246.973 98C241.906 98 237.506 97 233.773 95C230.106 93 227.273 90.3 225.273 86.9C223.273 83.4333 222.273 79.5667 222.273 75.3C222.273 69.9 223.373 65 225.573 60.6C227.84 56.1333 231.073 52.6 235.273 50C239.54 47.3333 244.706 46 250.773 46C255.906 46 260.306 47 263.973 49C267.64 51 270.473 53.7 272.473 57.1C274.473 60.5 275.473 64.3667 275.473 68.7C275.473 74.0333 274.34 78.9333 272.073 83.4C269.873 87.8667 266.64 91.4333 262.373 94.1C258.173 96.7 253.04 98 246.973 98ZM247.173 86C248.906 86 250.473 85.4667 251.873 84.4C253.34 83.2667 254.573 81.7667 255.573 79.9C256.64 78.0333 257.44 76.0333 257.973 73.9C258.506 71.7 258.773 69.5 258.773 67.3C258.773 65.3667 258.44 63.7333 257.773 62.4C257.173 61 256.24 59.9333 254.973 59.2C253.773 58.4 252.273 58 250.473 58C248.806 58 247.24 58.5667 245.773 59.7C244.373 60.7667 243.14 62.2333 242.073 64.1C241.073 65.9 240.273 67.9 239.673 70.1C239.14 72.3 238.873 74.5 238.873 76.7C238.873 78.5667 239.173 80.2 239.773 81.6C240.44 83 241.406 84.1 242.673 84.9C243.94 85.6333 245.44 86 247.173 86Z" fill="#2C3247"/>
<path d="M274.834 97L286.434 47H301.534L299.034 62.9L298.134 61.5C299.534 56.5 302.001 52.6667 305.534 50C309.067 47.3333 313.167 46 317.834 46C321.434 46 324.434 46.8 326.834 48.4C329.301 49.9333 331.001 52.1333 331.934 55C332.934 57.8667 332.967 61.3333 332.034 65.4L324.634 97H307.634L314.534 67.5C315.134 64.8333 314.901 62.7667 313.834 61.3C312.767 59.7667 311.034 59 308.634 59C306.834 59 305.234 59.4333 303.834 60.3C302.501 61.1 301.334 62.3333 300.334 64C299.401 65.6 298.667 67.6 298.134 70L291.834 97H274.834Z" fill="#2C3247"/>
<path d="M357.171 98.1C353.638 98.1 350.171 97.6 346.771 96.6C343.371 95.6 340.305 94.1667 337.571 92.3C334.905 90.3667 332.705 88.1 330.971 85.5L339.871 77.4C341.605 80.1333 343.871 82.3667 346.671 84.1C349.471 85.7667 352.438 86.6 355.571 86.6C357.638 86.6 359.238 86.3 360.371 85.7C361.505 85.1 362.071 84.1667 362.071 82.9C362.071 81.9667 361.705 81.1667 360.971 80.5C360.305 79.8333 359.271 79.3 357.871 78.9L351.871 77.1C346.871 75.5 343.271 73.5333 341.071 71.2C338.938 68.8 337.871 65.8667 337.871 62.4C337.871 59 338.771 56.1 340.571 53.7C342.371 51.2333 344.905 49.3333 348.171 48C351.438 46.6667 355.205 46 359.471 46C364.738 46 369.371 46.9 373.371 48.7C377.371 50.5 380.538 53.0333 382.871 56.3L374.371 64.7C373.505 63.3 372.305 62.0667 370.771 61C369.305 59.8667 367.671 59 365.871 58.4C364.071 57.7333 362.171 57.4 360.171 57.4C358.105 57.4 356.538 57.7333 355.471 58.4C354.405 59 353.871 59.8667 353.871 61C353.871 62 354.338 62.8 355.271 63.4C356.205 63.9333 357.271 64.4 358.471 64.8L367.971 67.7C371.505 68.8333 374.205 70.5333 376.071 72.8C378.005 75 378.971 77.6667 378.971 80.8C378.971 84.3333 378.105 87.4 376.371 90C374.638 92.6 372.138 94.6 368.871 96C365.605 97.4 361.705 98.1 357.171 98.1Z" fill="#2C3247"/>
<path d="M407.934 98C402.667 98 398.134 97.0333 394.334 95.1C390.601 93.1 387.734 90.4 385.734 87C383.734 83.5333 382.734 79.6 382.734 75.2C382.734 69.8 383.834 64.9 386.034 60.5C388.301 56.1 391.567 52.6 395.834 50C400.167 47.3333 405.367 46 411.434 46C416.034 46 420.034 46.7667 423.434 48.3C426.901 49.8333 429.601 51.9667 431.534 54.7C433.534 57.4333 434.601 60.6333 434.734 64.3L418.434 66.9C418.634 64.3 418.167 62.2 417.034 60.6C415.967 59 414.067 58.2 411.334 58.2C409.467 58.2 407.801 58.7667 406.334 59.9C404.867 60.9667 403.601 62.4 402.534 64.2C401.534 66 400.734 68 400.134 70.2C399.601 72.3333 399.334 74.5 399.334 76.7C399.334 78.5667 399.667 80.2 400.334 81.6C401.067 83 402.067 84.1 403.334 84.9C404.667 85.6333 406.234 86 408.034 86C409.834 86 411.501 85.4 413.034 84.2C414.634 82.9333 415.734 81.2667 416.334 79.2L431.534 84.1C429.667 88.4333 426.667 91.8333 422.534 94.3C418.467 96.7667 413.601 98 407.934 98Z" fill="#2C3247"/>
<path d="M460.382 47L448.782 97H431.782L443.382 47H460.382Z" fill="#2C3247"/>
<path d="M484.59 98C479.524 98 475.124 97 471.39 95C467.724 93 464.89 90.3 462.89 86.9C460.89 83.4333 459.89 79.5667 459.89 75.3C459.89 69.9 460.99 65 463.19 60.6C465.457 56.1333 468.69 52.6 472.89 50C477.157 47.3333 482.324 46 488.39 46C493.524 46 497.924 47 501.59 49C505.257 51 508.09 53.7 510.09 57.1C512.09 60.5 513.09 64.3667 513.09 68.7C513.09 74.0333 511.957 78.9333 509.69 83.4C507.49 87.8667 504.257 91.4333 499.99 94.1C495.79 96.7 490.657 98 484.59 98ZM484.79 86C486.524 86 488.09 85.4667 489.49 84.4C490.957 83.2667 492.19 81.7667 493.19 79.9C494.257 78.0333 495.057 76.0333 495.59 73.9C496.124 71.7 496.39 69.5 496.39 67.3C496.39 65.3667 496.057 63.7333 495.39 62.4C494.79 61 493.857 59.9333 492.59 59.2C491.39 58.4 489.89 58 488.09 58C486.424 58 484.857 58.5667 483.39 59.7C481.99 60.7667 480.757 62.2333 479.69 64.1C478.69 65.9 477.89 67.9 477.29 70.1C476.757 72.3 476.49 74.5 476.49 76.7C476.49 78.5667 476.79 80.2 477.39 81.6C478.057 83 479.024 84.1 480.29 84.9C481.557 85.6333 483.057 86 484.79 86Z" fill="#2C3247"/>
<path d="M530.556 97.9C527.023 97.9 524.023 97.1333 521.556 95.6C519.089 94.0667 517.323 91.9 516.256 89.1C515.256 86.2333 515.189 82.8333 516.056 78.9L523.556 47H540.556L533.756 76.4C533.089 79.1333 533.323 81.2333 534.456 82.7C535.656 84.1667 537.423 84.9 539.756 84.9C541.556 84.9 543.123 84.5 544.456 83.7C545.789 82.8333 546.889 81.6 547.756 80C548.689 78.3333 549.423 76.3333 549.956 74L556.256 47H573.256L561.656 97H546.556L549.056 81.1L549.956 82.6C548.556 87.5333 546.122 91.3333 542.656 94C539.256 96.6 535.223 97.9 530.556 97.9Z" fill="#2C3247"/>
<path d="M594.691 98.1C591.158 98.1 587.691 97.6 584.291 96.6C580.891 95.6 577.824 94.1667 575.091 92.3C572.424 90.3667 570.224 88.1 568.491 85.5L577.391 77.4C579.124 80.1333 581.391 82.3667 584.191 84.1C586.991 85.7667 589.958 86.6 593.091 86.6C595.158 86.6 596.758 86.3 597.891 85.7C599.024 85.1 599.591 84.1667 599.591 82.9C599.591 81.9667 599.224 81.1667 598.491 80.5C597.824 79.8333 596.791 79.3 595.391 78.9L589.391 77.1C584.391 75.5 580.791 73.5333 578.591 71.2C576.458 68.8 575.391 65.8667 575.391 62.4C575.391 59 576.291 56.1 578.091 53.7C579.891 51.2333 582.424 49.3333 585.691 48C588.958 46.6667 592.724 46 596.991 46C602.258 46 606.891 46.9 610.891 48.7C614.891 50.5 618.058 53.0333 620.391 56.3L611.891 64.7C611.024 63.3 609.824 62.0667 608.291 61C606.824 59.8667 605.191 59 603.391 58.4C601.591 57.7333 599.691 57.4 597.691 57.4C595.624 57.4 594.058 57.7333 592.991 58.4C591.924 59 591.391 59.8667 591.391 61C591.391 62 591.858 62.8 592.791 63.4C593.724 63.9333 594.791 64.4 595.991 64.8L605.491 67.7C609.024 68.8333 611.724 70.5333 613.591 72.8C615.524 75 616.491 77.6667 616.491 80.8C616.491 84.3333 615.624 87.4 613.891 90C612.158 92.6 609.658 94.6 606.391 96C603.124 97.4 599.224 98.1 594.691 98.1Z" fill="#2C3247"/>
<path d="M446.803 43.3438L440.925 32.4188L430 26.5406L434.216 22.3844L442.825 23.8687L448.881 17.8125L430.059 9.79688L435.047 4.69062L457.906 8.72812L465.269 1.36563C466.179 0.455208 467.307 0 468.653 0C469.999 0 471.127 0.455208 472.038 1.36563C472.948 2.27604 473.403 3.39427 473.403 4.72031C473.403 6.04635 472.948 7.16458 472.038 8.075L464.616 15.4969L468.653 38.2969L463.606 43.3438L455.531 24.5219L449.475 30.5781L451.019 39.1281L446.803 43.3438Z" fill="#2C3247"/>
</svg>
